<?xml version="1.0" encoding="utf-8"?>
<!-- Generator: Adobe Illustrator 25.0.1, SVG Export Plug-In . SVG Version: 6.00 Build 0)  -->
<svg version="1.1" id="Camada_1" xmlns="http://www.w3.org/2000/svg" xmlns:xlink="http://www.w3.org/1999/xlink" x="0px" y="0px"
	 viewBox="0 0 1328.3 594.83" style="enable-background:new 0 0 1328.3 594.83;" xml:space="preserve">
<style type="text/css">
	.st0{fill:#FFFFFF;}
	.st1{font-family:'Calibri';}
	.st2{font-size:52.6603px;}
	.st3{letter-spacing:20.64;}
	.st4{fill:url(#SVGID_1_);}
	.st5{fill:none;}
</style>
<text transform="matrix(1.0174 0 0 1 472.527 454.429)" class="st0 st1 st2 st3">A</text>
<g>
	<g id="Thiago_Pereira">
		<path id="T" class="st0" d="M230.43,308.76h-38.46c-5.02-0.03-11.4-1.18-13.24-1.94l-1.75-0.72v17.25l3.67-0.06v-3.24
			c0-2.91,2.32-5.28,5.23-5.4h20.34l0,65.83c-0.14,3.17-2.79,5.65-6.03,5.65h-2.68l-0.06,3.65h27.5l-0.06-3.65h-2.68
			c-3.28,0-5.93-2.52-6.03-5.69v-65.79l20.27,0c2.96,0.13,5.29,2.5,5.29,5.41v3.24l3.67,0.06V306.1l-1.75,0.72
			C241.82,307.58,235.45,308.73,230.43,308.76z"/>
		<path id="H" class="st0" d="M332.36,386.12c-2.91,0-5.27-2.09-5.37-4.7l0-53.04c0.15-2.62,2.5-4.67,5.37-4.67h2.55l0.06-3.65
			h-25.77l0.06,3.65h2.55c2.91,0,5.32,2.17,5.37,4.81v23.9h-39.5l0-24.02c0.14-2.63,2.49-4.69,5.37-4.69h2.56l0.04-3.65h-25.77
			l0.06,3.65h2.55c2.91,0,5.32,2.17,5.38,4.81v52.78c-0.06,2.66-2.46,4.83-5.37,4.83h-2.55l-0.06,3.64h25.77l-0.06-3.64h-2.55
			c-2.92,0-5.28-2.09-5.37-4.72v-23.1h39.5l0,23.06c-0.09,2.67-2.45,4.76-5.37,4.76h-2.55l-0.06,3.64l25.77,0l-0.06-3.65H332.36z"/>
		<path id="I_1_" class="st0" d="M378.91,386.12c-3.46,0-6.36-2.14-6.47-4.71l0-53.02c0.16-2.63,3-4.68,6.46-4.68h2.8v-3.65h-28.35
			l0.07,3.65h2.76c3.51,0,6.42,2.17,6.48,4.81v52.78c-0.07,2.67-2.97,4.83-6.48,4.83h-2.76l-0.07,3.65h28.38l-0.07-3.65H378.91z"/>
		<path id="A_1_" class="st0" d="M462.75,380.31L434.3,318.5h-3.05l-0.09,1.16c-0.08,1.04-0.85,3.72-4.04,10.59
			c-0.09,0.19-0.16,0.35-0.22,0.5l-0.01,0l-23.56,49.59c-1.85,3.62-4.77,5.78-7.8,5.78h-2.17v3.65h24.23v-3.63h-2.17
			c-1.02,0-2.05-0.54-2.62-1.37c-0.69-1-0.72-2.36-0.13-3.9l5.94-13.82h27.13l5.87,14.05c0.52,1.49,0.43,2.77-0.24,3.71
			c-0.58,0.82-1.58,1.33-2.59,1.33h-2.17v3.64h25.92v-3.65h-2.12C467.41,386.12,464.62,384,462.75,380.31z M443.28,361.16h-22.15
			l11.23-26.14L443.28,361.16z"/>
		<path id="G" class="st0" d="M537.6,359h2.89c0,0,0.01,0,0.01,0c1.49,0,2.62,0.36,3.29,1.03c0.5,0.5,0.74,1.2,0.73,2.09
			l-0.18,14.34c-6.5,6.05-14.28,8.99-23.77,8.99c-16.92,0-27.86-11.98-27.86-30.53c0-18.84,10.62-30.54,27.72-30.54
			c15.25,0,23.82,5.81,26.97,18.28l0.24,0.95h3.46l-2.83-17.85l-0.51-0.3c-7.91-4.75-16.56-6.96-27.24-6.96
			c-23.44,0-38.58,14.29-38.58,36.42c0,22.01,15.16,36.3,38.62,36.42c19.89,0,30.61-11.4,33.42-14.89l0.28-0.35l0-13.92
			c0-0.95,0.25-1.69,0.75-2.19c0.64-0.64,1.74-0.98,3.18-0.98h2.82v-3.65H537.6V359z"/>
		<path id="O" class="st0" d="M614.68,318.5c-22.63,0-39.69,15.66-39.69,36.42c0,20.76,17.06,36.42,39.69,36.42
			c22.63,0,39.69-15.66,39.69-36.42C654.37,334.16,637.31,318.5,614.68,318.5z M614.68,385.46c-16.65,0-28.73-12.84-28.73-30.54
			c0-17.7,12.08-30.54,28.73-30.54c16.65,0,28.73,12.84,28.73,30.54C643.41,372.62,631.33,385.46,614.68,385.46z"/>
		<path id="P" class="st0" d="M740.8,308.88l-30.96,0l0.06,3.64h2.68c3.11,0,5.69,2.29,6,5.19v62.63c-0.06,3.2-2.77,5.8-6.04,5.8
			h-2.68l-0.06,3.65h27.5l-0.06-3.65h-2.68c-3.27,0-5.97-2.6-6.03-5.78v-65.59h11.87c8.68,0,13.81,5.8,14.09,15.91
			c0.06,2.34-0.2,4.89-0.67,6.33c-4.73,14.74-21.69,11.37-22.41,11.21l-1.55-0.32l0.05,3.39l0.67,0.35
			c7.6,3.94,16.89,3.61,24.24-0.86c6.82-4.15,10.73-11.08,10.73-19.01C765.55,317.64,756.07,308.88,740.8,308.88z"/>
		<path id="E_1_" class="st0" d="M833.79,371.93c-3.4,7.61-7.1,11.76-16.93,11.89h-16.54v-25.96l18.38,0
			c2.75,0.16,3.16,2.25,3.16,3.48v2.67l3.77,0.04v-18.28l-3.77,0.04v2.67c0,1.28-0.44,3.43-3.35,3.49h-18.19v-25.96h22.33
			c2.63,0.05,4.47,1.9,4.47,4.49v2.97l3.77,0.04v-15.78l-1.71,0.65c-1.7,0.65-7.61,1.64-12.27,1.67h-34.55l0.06,3.65h2.81
			c3.03,0,5.31,1.98,5.31,4.6l0,53.08c-0.11,2.7-2.4,4.73-5.31,4.73h-2.8l-0.07,3.64h48.41l7.26-18.59h-3.9L833.79,371.93z"/>
		<path id="R_1_" class="st0" d="M906.87,378.03c-4.25-4.69-9.1-11.05-9.79-11.98l-0.08-0.12c-1.43-1.99-4.02-5.18-6.52-7.32
			c9.13-2.25,15.69-10.01,15.69-19.15c0-11.96-9.36-19.39-24.42-19.39l-29.83,0l0.07,3.65h2.78c2.92,0,5.11,1.94,5.21,4.56l0,53.14
			c-0.12,2.69-2.36,4.71-5.21,4.71h-2.78l-0.07,3.65h25.86l-0.07-3.65h-2.78c-2.91,0-5.15-2.08-5.21-4.81v-55.24
			c0.25,0,0.54-0.01,0.84-0.01c2.42-0.04,6.48-0.11,10.93,0.11c8.65,0.43,13.73,5,13.95,12.54c0.06,2.22-0.21,4.44-0.73,5.93
			c-2.94,8.47-9.24,8.62-15.58,8.78c-3.66,0.09-6.42,0.05-6.48,0.04l-1.29-0.02v3.59h1.26c3.24,0,6.7,2.31,10.56,7.07
			c0.35,0.43,2.23,3.05,4.22,5.82c2.9,4.04,6.18,8.62,6.96,9.54c3.47,4.1,8.72,10.3,22.11,10.3h4.85v-3.64l-1.25-0.01
			C914.43,386.07,911.67,383.32,906.87,378.03z"/>
		<path id="E" class="st0" d="M983.31,371.93c-3.4,7.61-7.1,11.76-16.93,11.89h-16.53v-25.96l18.38,0c2.75,0.16,3.16,2.25,3.16,3.48
			v2.67l3.77,0.04v-18.28l-3.77,0.04v2.67c0,1.28-0.44,3.43-3.35,3.49h-18.19v-25.96h22.32c2.63,0.05,4.47,1.9,4.47,4.49v2.97
			l3.77,0.04v-15.78l-1.71,0.65c-1.7,0.65-7.61,1.64-12.27,1.67h-34.56l0.07,3.65h2.8c3.03,0,5.31,1.98,5.31,4.6l0,53.08
			c-0.11,2.7-2.4,4.73-5.31,4.73h-2.81l-0.06,3.64h48.41l7.26-18.59h-3.9L983.31,371.93z"/>
		<path id="I" class="st0" d="M1027,386.12c-3.46,0-6.36-2.14-6.47-4.71l0-53.02c0.16-2.63,3-4.68,6.46-4.68h2.8v-3.65h-28.35
			l0.07,3.65h2.76c3.51,0,6.42,2.17,6.48,4.81v52.78c-0.07,2.67-2.97,4.83-6.48,4.83h-2.76l-0.07,3.65h28.38l-0.07-3.65H1027z"/>
		<path id="R" class="st0" d="M1103.2,378.03c-4.25-4.69-9.1-11.05-9.79-11.98l-0.08-0.12c-1.43-1.99-4.02-5.18-6.52-7.32
			c9.13-2.25,15.69-10.01,15.69-19.15c0-11.96-9.36-19.39-24.42-19.39l-29.83,0l0.06,3.65h2.78c2.92,0,5.11,1.94,5.21,4.56l0,53.14
			c-0.12,2.69-2.36,4.71-5.21,4.71h-2.78l-0.07,3.65h25.86l-0.07-3.65h-2.78c-2.91,0-5.15-2.08-5.21-4.81v-55.24
			c0.25,0,0.54-0.01,0.84-0.01c2.42-0.04,6.48-0.11,10.93,0.11c8.65,0.43,13.73,5,13.95,12.55c0.07,2.21-0.21,4.43-0.73,5.93
			c-2.94,8.47-9.24,8.62-15.58,8.78c-3.65,0.09-6.42,0.05-6.48,0.04l-1.29-0.02v3.59h1.26c3.24,0,6.7,2.31,10.56,7.07
			c0.35,0.43,2.23,3.05,4.22,5.82c2.9,4.04,6.18,8.62,6.96,9.54c3.47,4.1,8.72,10.3,22.11,10.3h4.85v-3.64l-1.25-0.01
			C1110.76,386.07,1108,383.32,1103.2,378.03z"/>
		<path id="A" class="st0" d="M1198.44,386.12c-3,0-5.79-2.12-7.64-5.79l-28.46-61.83h-3.05l-0.09,1.16
			c-0.08,1.04-0.85,3.72-4.04,10.59c-0.09,0.18-0.16,0.35-0.22,0.5l0,0l-23.56,49.59c-1.85,3.62-4.77,5.78-7.8,5.78h-2.17v3.65
			h24.23v-3.63h-2.17c-1.02,0-2.05-0.54-2.62-1.37c-0.69-1-0.72-2.36-0.13-3.9l5.94-13.82h27.14l5.87,14.05
			c0.52,1.49,0.43,2.77-0.24,3.71c-0.58,0.82-1.58,1.33-2.59,1.33h-2.17v3.64h25.92v-3.65H1198.44z M1171.31,361.16h-22.15
			l11.23-26.14L1171.31,361.16z"/>
	</g>
	<g id="Logo">
		<g>
			
				<radialGradient id="SVGID_1_" cx="688.7725" cy="200.7748" r="611.5685" fx="670.4081" fy="173.1822" gradientTransform="matrix(1 0 0 0.4658 0 107.2545)" gradientUnits="userSpaceOnUse">
				<stop  offset="0" style="stop-color:#E2BF9A"/>
				<stop  offset="0.074" style="stop-color:#CEAB84"/>
				<stop  offset="0.2197" style="stop-color:#B49067"/>
				<stop  offset="0.3573" style="stop-color:#A37F54"/>
				<stop  offset="0.4819" style="stop-color:#997648"/>
				<stop  offset="0.5823" style="stop-color:#967345"/>
			</radialGradient>
			<path class="st4" d="M571.2,174.75c9.89-22.96,31.68-40.23,65.38-51.79c2.07,1.26,3.05,4.13,2.93,8.61
				c-0.12,1.18-0.29,2.99-0.52,5.43c-0.35,2.28-0.52,3.85-0.52,4.72c-0.81,0.63-2.76,1.46-5.87,2.48c-2.65,0.87-4.37,1.81-5.18,2.83
				c-0.69,15.97-0.98,36.96-0.86,63c0.11,34.68,0.17,55.84,0.17,63.47c-1.15-0.47-3.22-1.22-6.21-2.24
				c-3.11-1.02-5.46-1.85-7.07-2.48c-5.52-2.2-8.91-4.52-10.18-6.96c-0.46-0.71-0.69-8.41-0.69-23.12v-68.78
				c-1.84-0.08-3.17,0.67-3.97,2.24c-0.81,1.73-1.67,2.75-2.59,3.07c-1.38-0.08-5.64-0.08-12.77,0
				C577.99,175.31,573.96,175.15,571.2,174.75z M652.8,119.43c10.12-2.12,22.2-3.19,36.23-3.19c14.03,0,26.16,1.06,36.4,3.19
				c1.26,5.9,1.26,11.84,0,17.81c-15.99-1.96-23.64-2.99-22.94-3.07c-0.58,16.6-1.04,41.33-1.38,74.2
				c-0.46,36.89-0.86,62.33-1.21,76.33c-11.39,0.94-19.04,0.78-22.95-0.47c-0.58-16.36-0.75-41.45-0.52-75.26
				c0.11-33.82-0.11-58.91-0.69-75.27c-3.34-0.63-7.53-0.27-12.59,1.06c-5.64,1.42-9.32,2.08-11.04,2.01c0.11-0.94,0.11-3.93,0-8.97
				C651.99,124.11,652.22,121.31,652.8,119.43z M739.06,123.44c33.24,9.36,55.67,26.47,67.28,51.32
				c-2.76,0.55-10.81,0.87-24.15,0.94c-1.03-0.24-1.96-1.18-2.76-2.83c-0.81-1.49-2.07-2.2-3.8-2.12
				c-1.61,20.05-2.07,45.22-1.38,75.5c0.23,9.67,0.46,14.28,0.69,13.8c-1.38,3.07-4.77,5.7-10.18,7.9c-1.38,0.55-3.68,1.42-6.9,2.6
				c-2.88,1.02-5,1.85-6.38,2.48c-0.92-32.8-1.38-69.25-1.38-109.36v-15.69c-0.58-1.34-2.24-2.52-5-3.54
				c-3.57-1.26-5.81-2.16-6.73-2.71C738.95,133.31,739.17,127.21,739.06,123.44z"/>
		</g>
	</g>
	<rect id="_x3C_Fatia_x3E_" x="176.87" y="145.43" class="st5" width="1024" height="338"/>
	<text transform="matrix(1.0174 0 0 1 524.527 454.429)" class="st0 st1 st2 st3">D</text>
	<text transform="matrix(1.0174 0 0 1 577.832 453.3681)" class="st0 st1 st2 st3">V</text>
	<text transform="matrix(1.0174 0 0 1 629.832 453.3681)" class="st0 st1 st2 st3">O</text>
	<text transform="matrix(1.0174 0 0 1 685.832 453.3681)" class="st0 st1 st2 st3">G</text>
	<text transform="matrix(1.0174 0 0 1 740.832 453.3681)" class="st0 st1 st2 st3">A</text>
	<text transform="matrix(1.0174 0 0 1 793.832 453.3681)" class="st0 st1 st2 st3">D</text>
</g>
<text transform="matrix(1.0174 0 0 1 848.832 454.3681)" class="st0 st1 st2 st3">O</text>
</svg>
