<?xml version="1.0" encoding="utf-8"?>
<!-- Generator: Adobe Illustrator 25.0.1, SVG Export Plug-In . SVG Version: 6.00 Build 0)  -->
<svg version="1.1" xmlns="http://www.w3.org/2000/svg" xmlns:xlink="http://www.w3.org/1999/xlink" x="0px" y="0px"
	 viewBox="0 0 5908.56 3408.76" style="enable-background:new 0 0 5908.56 3408.76;" xml:space="preserve">
<style type="text/css">
	.st0{fill:#030141;}
	.st1{fill:#151D26;}
	.st2{font-family:'gadies';}
	.st3{font-size:1080px;}
	.st4{letter-spacing:-32;}
	.st5{fill:none;stroke:#151D26;stroke-width:7;stroke-miterlimit:10;}
</style>
<g id="Camada_1">
</g>
<g id="Camada_2">
	<line class="st0" x1="4491.39" y1="837.45" x2="4499.73" y2="825.79"/>
	<line class="st0" x1="4488.57" y1="841.4" x2="4491.39" y2="837.45"/>
	<g>
		<text transform="matrix(1 0 0 1 2678.4983 2304.2949)" class="st1 st2 st3 st4">evol</text>
		<path class="st5" d="M2448.44,2094.05L2067.93,948.74c-32.51-97.84-161.54-118.88-223.44-36.43l-330.06,439.6l493.07,144.59
			c84.68,24.83,119.3,126,67.57,197.5l-293.75,404.27l509.91,158.67C2390.16,2285.96,2480.95,2191.89,2448.44,2094.05z"/>
		<path class="st1" d="M1183.87,1766.7l309.84-423.07l-515.85-130.01c-99.6-28.58-190.01,67.03-155.9,164.88l403.07,1156.29
			c34.11,97.84,164.37,116.54,224.61,32.23l321.05-451.35l-505.87-144.09C1179.07,1946.96,1130.72,1838.35,1183.87,1766.7z"/>
		<path class="st1" d="M2006.66,1490.17l-493.89-141.74l-303.67,409.35c-53.15,71.65-18.38,174.33,67.37,198.94l503.15,144.4
			l295.74-413.84C2126.68,1615.48,2091.49,1514.52,2006.66,1490.17z"/>
	</g>
</g>
</svg>
