<?xml version="1.0" standalone="no"?>
<!DOCTYPE svg PUBLIC "-//W3C//DTD SVG 20010904//EN"
 "http://www.w3.org/TR/2001/REC-SVG-20010904/DTD/svg10.dtd">
<svg version="1.0" xmlns="http://www.w3.org/2000/svg"
 width="180.000000pt" height="180.000000pt" viewBox="0 0 180.000000 180.000000"
 preserveAspectRatio="xMidYMid meet">
<metadata>
Created by potrace 1.11, written by Peter Selinger 2001-2013
</metadata>
<g transform="translate(0.000000,180.000000) scale(0.100000,-0.100000)"
fill="#000000" stroke="none">
<path d="M857 1455 c-1 -2 -36 -5 -76 -9 -42 -3 -79 -12 -83 -19 -12 -18 -4
-112 9 -110 47 9 83 15 111 18 l32 3 1 -101 c1 -56 2 -282 2 -502 1 -261 5
-403 12 -407 12 -9 101 -10 130 -2 20 5 21 14 24 222 1 119 4 298 6 397 1 99
3 226 4 283 l1 103 48 -6 c26 -3 62 -7 80 -9 l32 -5 0 59 c0 32 -4 61 -9 64
-17 11 -312 30 -324 21z"/>
<path d="M499 1376 c-151 -66 -273 -165 -328 -268 -12 -22 -20 -43 -17 -45 2
-3 41 -5 86 -6 67 0 84 2 92 16 24 44 28 4 28 -288 0 -298 0 -305 21 -324 23
-21 138 -65 140 -53 1 4 2 176 4 382 3 510 -2 457 42 477 32 16 38 23 41 57 5
48 -5 86 -21 86 -6 0 -46 -15 -88 -34z"/>
<path d="M1277 1402 c-3 -4 -4 -34 -3 -67 1 -51 4 -60 21 -63 52 -10 52 -11
54 -325 3 -408 6 -525 13 -533 9 -8 99 24 127 46 22 16 22 21 23 281 1 145 3
283 6 307 l4 43 22 -19 c18 -16 33 -19 100 -16 44 3 81 6 83 7 2 2 -14 30 -36
63 -80 122 -179 196 -347 260 -35 13 -65 20 -67 16z"/>
</g>
</svg>
